#!OML:ASF F:\VICON\USERDATA\INSTALL\rory3\rory3.ASF
:FULLY-SPECIFIED
:DEGREES
2075
root -0.24601 18.0559 -0.391972 -4.29348 -4.20045 3.5724
lowerback 10.4074 0.77539 -4.79715
upperback 1.92878 0.466005 -0.764989
thorax -3.85443 0.282157 1.84105
lowerneck -11.3389 -0.55617 -7.66136
upperneck 6.45149 -0.3026 8.00586
head 3.79324 0.0805641 3.69311
rclavicle -1.85429e-015 1.75179e-014
rhumerus 2.45274 -27.1724 -24.8613
rradius 20.2366
rwrist 23.9216
rhand -32.4417 6.43992
rfingers 7.12502
rthumb -5.67519 -23.4641
lclavicle -1.85429e-015 1.75179e-014
lhumerus -2.50054 11.6626 25.2373
lradius 24.7973
lwrist 0.538259
lhand -27.8858 19.3967
lfingers 7.12502
lthumb -1.27565 49.3726
rfemur -14.204 16.2742 11.3478
rtibia 52.1489
rfoot -25.6583 -24.2079
rtoes 5.95654
lfemur -7.95563 5.30075 -24.255
ltibia 45.6334
lfoot -18.1413 0.856089
ltoes -15.2945
2076
root -0.242329 18.1483 -0.366066 -4.12379 -4.42149 3.68118
lowerback 10.3117 0.762017 -4.89617
upperback 1.84843 0.438911 -0.800597
thorax -3.88395 0.271653 1.86345
lowerneck -11.4109 -0.500954 -7.55106
upperneck 6.59484 -0.238867 7.91426
head 3.84301 0.111453 3.65218
rclavicle 1.25328e-014 -2.31087e-015
rhumerus 1.20688 -26.201 -25.5662
rradius 20.0308
rwrist 23.8992
rhand -32.3573 6.33025
rfingers 7.12502
rthumb -5.59366 -23.5759
lclavicle 1.25328e-014 -2.31087e-015
lhumerus -3.94833 11.6124 25.8297
lradius 24.2874
lwrist 0.899047
lhand -28.3336 20.9615
lfingers 7.12502
lthumb -1.70815 50.9344
rfemur -14.4578 16.4075 11.528
rtibia 51.6143
rfoot -24.7244 -23.8494
rtoes 6.3351
lfemur -7.79534 5.23119 -24.4117
ltibia 44.9565
lfoot -17.1043 1.07717
ltoes -17.9987
2077
root -0.242419 18.2416 -0.340585 -3.86422 -4.58369 3.56416
lowerback 10.1384 0.701495 -4.81218
upperback 1.77933 0.378986 -0.732567
thorax -3.85589 0.241875 1.89596
lowerneck -11.6181 -0.453842 -7.54217
upperneck 6.78027 -0.164444 7.83583
head 3.9271 0.148146 3.63414
rclavicle 2.29612e-015 -2.86995e-015
rhumerus -0.0358887 -25.5157 -26.1782
rradius 19.8416
rwrist 23.7278
rhand -32.4232 5.8724
rfingers 7.12502
rthumb -5.6573 -24.0321
lclavicle 2.29612e-015 -2.86995e-015
lhumerus -5.5796 11.7532 26.3814
lradius 23.9388
lwrist 1.43638
lhand -28.8359 22.2382
lfingers 7.12502
lthumb -2.19323 52.2067
rfemur -14.7191 16.5678 11.9838
rtibia 50.9947
rfoot -23.5944 -23.3832
rtoes 5.0629
lfemur -7.74438 5.11546 -24.2954
ltibia 44.346
lfoot -16.0487 1.1844
ltoes -19.9617
2078
root -0.242786 18.3437 -0.313734 -3.42232 -4.59987 3.24049
lowerback 9.85243 0.590601 -4.4736
upperback 1.63029 0.284067 -0.63902
thorax -3.84521 0.193409 1.81643
lowerneck -11.793 -0.438602 -7.43672
upperneck 7.03201 -0.14892 7.71367
head 4.03082 0.155193 3.58325
rclavicle -8.83582e-015 -1.15792e-014
rhumerus -1.25831 -26.0863 -26.8095
rradius 19.3748
rwrist 24.2945
rhand -32.7081 6.26008
rfingers 7.12502
rthumb -5.93243 -23.6369
lclavicle -8.83582e-015 -1.15792e-014
lhumerus -7.19839 12.0175 26.8234
lradius 23.5819
lwrist 1.8338
lhand -28.7708 22.5636
lfingers 7.12502
lthumb -2.13039 52.5327
rfemur -15.054 16.579 12.6271
rtibia 50.2833
rfoot -22.4951 -22.6433
rtoes 4.08746
lfemur -7.91634 4.91256 -23.9522
ltibia 43.7916
lfoot -14.9233 1.16824
ltoes -20.8573
2079
root -0.243545 18.4535 -0.280266 -2.88727 -4.66326 2.69796
lowerback 9.42605 0.501092 -3.88019
upperback 1.50369 0.25056 -0.51489
thorax -3.73622 0.169842 1.61743
lowerneck -11.8995 -0.423552 -7.37447
upperneck 7.13417 -0.136404 7.71308
head 4.07841 0.165048 3.57546
rclavicle 2.26242e-014 2.00027e-015
rhumerus -2.47793 -27.759 -27.3361
rradius 18.7128
rwrist 25.4957
rhand -32.8025 6.77112
rfingers 7.12502
rthumb -6.02354 -23.1232
lclavicle 2.26242e-014 2.00027e-015
lhumerus -8.60264 13.0552 27.1111
lradius 22.949
lwrist 1.32409
lhand -28.2591 22.8341
lfingers 7.12502
lthumb -1.63611 52.8075
rfemur -15.4291 16.623 13.4991
rtibia 49.4723
rfoot -21.4242 -21.7304
rtoes 2.91977
lfemur -8.18453 4.74505 -23.3483
ltibia 43.2675
lfoot -13.7931 1.06142
ltoes -21.8319
2080
root -0.245287 18.5597 -0.241806 -2.39225 -4.81069 2.12121
lowerback 8.93836 0.447535 -3.22124
upperback 1.44563 0.270157 -0.374442
thorax -3.52415 0.169616 1.39193
lowerneck -11.9105 -0.421217 -7.41925
upperneck 7.00577 -0.121726 7.7349
head 4.03999 0.172449 3.58938
rclavicle -1.17081e-014 -1.66482e-015
rhumerus -3.75108 -29.5674 -27.6146
rradius 18.1248
rwrist 26.3385
rhand -32.4301 6.26644
rfingers 7.12502
rthumb -5.66404 -23.6379
lclavicle -1.17081e-014 -1.66482e-015
lhumerus -9.99432 14.4728 27.2434
lradius 22.291
lwrist 0.489596
lhand -27.905 23.0095
lfingers 7.12502
lthumb -1.29415 52.9853
rfemur -15.712 16.732 14.4025
rtibia 48.5905
rfoot -20.4071 -20.512
rtoes 1.89284
lfemur -8.38469 4.6371 -22.6818
ltibia 42.7698
lfoot -12.7196 0.944835
ltoes -22.8642
2081
root -0.247591 18.6638 -0.19853 -1.93966 -4.89818 1.60667
lowerback 8.36798 0.410667 -2.60603
upperback 1.43059 0.302776 -0.256364
thorax -3.2214 0.175763 1.16678
lowerneck -11.8639 -0.468209 -7.40163
upperneck 6.8688 -0.177817 7.66383
head 3.99494 0.140445 3.55871
rclavicle 7.35969e-015 -7.74018e-015
rhumerus -5.16742 -31.6533 -27.5515
rradius 17.491
rwrist 27.2621
rhand -31.8884 5.88294
rfingers 7.12502
rthumb -5.14093 -24.0347
lclavicle 7.35969e-015 -7.74018e-015
lhumerus -11.3873 15.264 27.2808
lradius 21.845
lwrist 0.42352
lhand -27.5602 22.3057
lfingers 7.12502
lthumb -0.961189 52.2833
rfemur -15.8864 16.838 15.2401
rtibia 47.6875
rfoot -19.1653 -19.1383
rtoes 0.427661
lfemur -8.4987 4.45481 -22.0707
ltibia 42.2616
lfoot -11.5084 0.84089
ltoes -22.9484
2082
root -0.254568 18.7586 -0.161211 -1.53667 -4.91416 1.166
lowerback 8.0101 0.398682 -2.14243
upperback 1.36743 0.340478 -0.153066
thorax -3.08704 0.189354 1.01027
lowerneck -11.8903 -0.495052 -7.40806
upperneck 6.86209 -0.215844 7.71525
head 4.00034 0.124873 3.57345
rclavicle 2.36523e-015 9.95166e-015
rhumerus -6.75415 -34.2978 -27.0534
rradius 16.7458
rwrist 29.0523
rhand -31.8118 5.75366
rfingers 7.12502
rthumb -5.06705 -24.1658
lclavicle 2.36523e-015 9.95166e-015
lhumerus -12.6416 15.9663 27.1596
lradius 21.306
lwrist 0.291407
lhand -26.9326 21.4021
lfingers 7.12502
lthumb -0.354952 51.3816
rfemur -16.0393 17.0633 16.0074
rtibia 46.8501
rfoot -17.8814 -17.728
rtoes -0.828579
lfemur -8.57615 4.25194 -21.5164
ltibia 41.7122
lfoot -10.027 0.80807
ltoes -22.5534
2083
root -0.263271 18.8488 -0.13127 -1.28449 -4.8545 1.01714
lowerback 7.98461 0.395781 -2.01867
upperback 1.25153 0.348544 -0.0944738
thorax -3.19273 0.194244 1.00018
lowerneck -11.8193 -0.495364 -7.46859
upperneck 6.86153 -0.217743 7.78465
head 3.98888 0.124816 3.60459
rclavicle -1.63951e-014 -3.04389e-015
rhumerus -8.51721 -36.1294 -26.1305
rradius 16.1005
rwrist 30.2884
rhand -31.9644 5.03651
rfingers 7.12502
rthumb -5.21437 -24.8793
lclavicle -1.63951e-014 -3.04389e-015
lhumerus -13.8345 17.0508 26.8322
lradius 20.5728
lwrist -0.38358
lhand -26.2329 20.8624
lfingers 7.12502
lthumb 0.320771 50.8419
rfemur -16.1036 17.2639 16.4594
rtibia 46.1001
rfoot -16.4972 -16.1117
rtoes -1.03449
lfemur -8.54589 3.99449 -21.2585
ltibia 41.1218
lfoot -8.56486 0.750689
ltoes -22.4547
2084
root -0.272988 18.9413 -0.101163 -1.13585 -4.77386 1.17785
lowerback 8.00889 0.41516 -2.18602
upperback 1.15918 0.35656 -0.140896
thorax -3.30288 0.201706 1.04499
lowerneck -11.5653 -0.504547 -7.38561
upperneck 6.68762 -0.242128 7.6822
head 3.89604 0.104628 3.55393
rclavicle 5.8657e-015 -1.00821e-014
rhumerus -10.3965 -37.5896 -24.9129
rradius 15.5032
rwrist 31.2155
rhand -31.6585 4.24548
rfingers 7.12502
rthumb -4.919 -25.6774
lclavicle 5.8657e-015 -1.00821e-014
lhumerus -14.9377 18.144 26.2714
lradius 19.8148
lwrist -0.996115
lhand -25.8027 20.5056
lfingers 7.12502
lthumb 0.736336 50.4841
rfemur -16.1121 17.4275 16.5942
rtibia 45.4189
rfoot -15.0052 -14.5735
rtoes -1.52125
lfemur -8.43743 3.61431 -21.3327
ltibia 40.5006
lfoot -7.24769 0.720303
ltoes -22.37
2085
root -0.285254 19.0277 -0.0735951 -0.82432 -4.68044 1.21822
lowerback 7.85137 0.433131 -2.23234
upperback 1.09352 0.379249 -0.159611
thorax -3.28396 0.21382 1.04977
lowerneck -11.5433 -0.548191 -7.39016
upperneck 6.63215 -0.297835 7.66951
head 3.87992 0.0759231 3.54641
rclavicle 6.70432e-015 1.42007e-014
rhumerus -12.3009 -40.0085 -23.3076
rradius 14.8267
rwrist 33.3111
rhand -31.0301 4.05456
rfingers 7.12502
rthumb -4.31225 -25.8815
lclavicle 6.70432e-015 1.42007e-014
lhumerus -15.876 19.5067 25.5406
lradius 19.0446
lwrist -1.78812
lhand -25.5255 20.8474
lfingers 7.12502
lthumb 1.00399 50.8248
rfemur -16.2991 17.7017 16.8029
rtibia 44.7107
rfoot -13.6706 -13.404
rtoes -2.92481
lfemur -8.53301 3.197 -21.2682
ltibia 39.8941
lfoot -5.96734 0.716672
ltoes -21.6265
